<svg xmlns="http://www.w3.org/2000/svg" viewBox="0 0 750 500"><path d="m61.71 156.74 1 1.66c8.49 14 23.84 22.43 40 21.4a42 42 0 0 0 6.2-.85 46 46 0 0 0 32.82-28.52c3.12-8.38 4-18 9.92-24.69 7.71-8.65 20.79-8.93 32.3-8.57s24.6.06 32.27-8.64c4.8-5.44 6.33-13.18 5.94-20.47-1-19.3-14.47-36.56-31.58-45.14s-37.24-9.34-56-5.57c-26.22 5.29-51.16 19.8-66.15 42.23s-18.71 52.96-6.72 77.16m431.7-93.61-.92 1.71c-7.71 14.44-7.14 31.94 2 45.35a42 42 0 0 0 3.89 4.89 46 46 0 0 0 41.27 13.71c8.8-1.58 17.55-5.75 26.29-4 11.38 2.22 18.28 13.34 23.83 23.42s12.49 21.2 23.88 23.37c7.13 1.36 14.57-1.27 20.65-5.32 16.08-10.71 24.08-31.08 22.74-50.17s-10.93-36.8-23.71-51c-17.91-19.87-43.11-33.93-70-35.4s-55.21 10.79-69.92 33.44" fill="rgba(255,255,255, 0.1)"/><circle cx="286.29" cy="75.76" r="31.78" transform="rotate(-76.28 286.3 75.75)" fill="rgba(255,255,255, 0.1)"/><circle cx="169.38" cy="299.04" r="22.46" transform="rotate(-45 169.37 299.03)" fill="rgba(255,255,255, 0.1)"/><path d="M559.69 88.02h135.46v154.59H559.69z" fill="#fff"/><path d="M695.14 242.61v-11.23c0-7.3 0-18-.06-31.54 0-27.11-.06-65.73-.11-111.82l.22.22H559.75l.25-.25v154.59l-.21-.21 98.25.11 27.47.05h9.73-9.65l-27.42.05-98.38.11h-.21V87.63h135.93V88c0 46.15-.09 84.82-.11 112 0 13.54 0 24.21-.06 31.49v10.43c0 .49-.2.69-.2.69" fill="#263238"/><path d="M683.5 167c0 .1-1.5-.75-4.35-1.65a28 28 0 0 0-12.5-.93 27 27 0 0 0-8.24 2.65 39 39 0 0 0-8.1 5.82c-2.65 2.35-5.29 5-8.33 7.47a29 29 0 0 1-10.64 5.76 16 16 0 0 1-6.21.37 20 20 0 0 1-5.76-1.77 103 103 0 0 1-9.64-5.74 30 30 0 0 0-9.06-4.06 27 27 0 0 0-8.63-.66 28 28 0 0 0-11.91 3.87c-2.55 1.56-3.76 2.74-3.82 2.66s.27-.32.86-.85a20 20 0 0 1 2.77-2.11 27 27 0 0 1 20.91-3.66 31 31 0 0 1 9.33 4.08 99 99 0 0 0 9.58 5.64 16.4 16.4 0 0 0 11.35 1.33 28 28 0 0 0 10.3-5.57c3-2.4 5.64-5 8.34-7.4a39 39 0 0 1 8.32-5.87 28 28 0 0 1 8.49-2.61 27 27 0 0 1 12.7 1.24 22 22 0 0 1 3.2 1.37 6 6 0 0 1 1.04.62m-86.53 20.72h11.52v31.15h-11.52zm48.87 0h11.52v31.15h-11.52z" fill="#ef4444"/><path d="M662.13 169.43h11.52v49.44h-11.52zm-80.06 39.63h11.52v10.48h-11.52zm31.19-7.28h11.52v17.08h-11.52zm16.29-3.92h11.52v21h-11.52z" fill="#ef4444"/><path d="M609 222.53c0 .26-2.78.46-6.22.46s-6.22-.2-6.22-.46 2.78-.46 6.22-.46 6.22.21 6.22.46m-14.38 0c0 .26-2.78.46-6.22.46s-6.22-.2-6.22-.46 2.78-.46 6.22-.46 6.22.21 6.22.46m81.29 0c0 .26-3.15.46-7 .46s-7-.2-7-.46 3.14-.46 7-.46 7 .21 7 .46m-17.11 0c0 .26-3.14.46-7 .46s-7-.2-7-.46 3.15-.46 7-.46 7 .21 7 .46m-17.73 0c0 .26-2.79.47-6.23.47s-6.22-.21-6.22-.47 2.79-.46 6.22-.46 6.23.21 6.23.46m-16.83 0c0 .26-2.79.47-6.23.47s-6.22-.21-6.22-.47 2.79-.46 6.22-.46 6.23.21 6.23.46" fill="#263238"/><path d="M581.8 110.55h94.11v39.08H581.8z" fill="#e0e0e0"/><path d="M601.35 122.91a4.39 4.39 0 1 1-4.39-4.39 4.4 4.4 0 0 1 4.39 4.39m4.39-3.03h30.57v1.7h-30.57z" fill="#263238"/><path d="M605.74 123.73h59.47v1.7h-59.47z" fill="#fff"/><path d="M601.35 136.39A4.39 4.39 0 1 1 597 132a4.4 4.4 0 0 1 4.35 4.39m4.39-3.03h15.61v1.7h-15.61z" fill="#ef4444"/><path d="M605.74 137.22h59.47v1.7h-59.47zm26.35 258.45.97-113.84 81.3.7-.97 113.83z" fill="#fff"/><path d="M632.11 395.68v-8.27c0-5.42.08-13.33.14-23.34l.59-82.23v-.23h.23l81.29.67h.27v.26c-.39 42.63-.74 82-1 113.84v.21h-.21l-59.24-.59-16.35-.19-4.27-.06h-1.45 5.81l16.39.09 59.1.4-.21.21.93-113.84.26.26-81.29-.72.24-.23-.82 82.07-.27 23.39c0 2.71-.06 4.79-.08 6.21v1.61c0 .38-.06.48-.06.48" fill="#263238"/><path d="M643.46 309.58c0-.26 13.47-.36 30.07-.22s30.06.47 30.06.73-13.46.36-30.07.22-30.06-.47-30.06-.73m-.06 8.04c0-.27 13.46-.36 30.06-.22s30.06.47 30.06.73-13.46.36-30.07.22-30.06-.47-30.05-.73m-.07 8.03c0-.26 13.46-.35 30.06-.21s30.07.47 30.06.73-13.46.36-30.07.22-30.06-.47-30.05-.74m-.07 8.04c0-.26 13.46-.36 30.06-.21s30.07.47 30.06.73-13.46.36-30.07.22-30.06-.43-30.05-.74m-.07 8.04c0-.26 13.46-.36 30.06-.21s30.07.47 30.06.73-13.46.36-30.06.21-30.06-.46-30.06-.73" fill="#263238"/><path d="M655.04 351.06h9.68v30.22h-9.68zm14.45 6.91h9.68v23.32h-9.68zm13.37 9.47h9.68v13.85h-9.68z" fill="#455a64"/><path d="M560.7 262.39h5.3l14.49-.08 47.82-.08 42.74.06h.25v.2l-.11 14.57c0 1.7-.05 3-.07 4v1.35-1.35q.02-1.43-.06-4c0-3.5-.07-8.48-.11-14.57l.25.2-42.74.06-47.82-.08-14.64-.18-3.95-.05h-1ZM559.44 114a2 2 0 0 1-.63 0H557l-6.71.07-22.62.09.25-.26q-.01 2.55.05 5.27c.09 10.23.1 19.5 0 26.2 0 3.35-.07 6.07-.14 7.94 0 .94-.07 1.66-.11 2.16a6 6 0 0 1-.1.75s0-4.15 0-10.85-.12-16-.2-26.19v-5.54h.26l22.62.08 6.7.28h1.81a4 4 0 0 1 .63 0" fill="#263238"/><path d="M562 114a2.57 2.57 0 1 1-2.56-2.56A2.57 2.57 0 0 1 562 114m111.68 168.34a2.57 2.57 0 1 1-2.56-2.56 2.56 2.56 0 0 1 2.56 2.56" fill="#263238"/><path d="M556.2 153.89H209a10.84 10.84 0 0 0-10.84 10.84V410A10.85 10.85 0 0 0 209 420.84h133.23s8.47 26.21-17.81 39.78H449s-29.67-10.18-22-39.78h129.2A10.84 10.84 0 0 0 567 410V164.73a10.84 10.84 0 0 0-10.8-10.84" fill="#455a64"/><path d="M387.21 395c4.73 6.75-2.67 14.14-9.42 9.42a3 3 0 0 1-.58-.58c-4.71-6.75 2.67-14.13 9.42-9.42a2 2 0 0 1 .58.58" fill="#263238"/><path d="M213.79 158.38h337.57a9.7 9.7 0 0 1 9.7 9.7V376h-357V168.08a9.7 9.7 0 0 1 9.73-9.7" fill="#fff"/><path d="M213.25 158.38h340.3a7.5 7.5 0 0 1 7.52 7.52v10.56h-357v-8.93a9.15 9.15 0 0 1 9.18-9.15" fill="#ebebeb"/><path d="M218 167.8a2.51 2.51 0 1 1-2.51-2.51 2.5 2.5 0 0 1 2.51 2.51m7.44 0a2.51 2.51 0 1 1-2.5-2.51 2.5 2.5 0 0 1 2.5 2.51m7.11 0a2.51 2.51 0 1 1-2.51-2.51 2.5 2.5 0 0 1 2.51 2.51" fill="#e0e0e0"/><path d="M494.12 420.87c0 .12-49.41.21-110.36.21s-110.36-.08-110.36-.21 49.4-.21 110.36-.21 110.36.1 110.36.21" fill="#263238"/><path d="m319.1 299.71-99.55.29.2 68.34 82.52-.23 11.19-.04 5.84-.01z" fill="#f5f5f5"/><path d="M227.21 361c-.12 0-.25-11.59-.29-25.89s0-25.9.14-25.9.25 11.59.29 25.9-.02 25.89-.14 25.89" fill="#263238"/><path d="M313.58 353.63c0 .12-19.41.28-43.36.34s-43.36 0-43.36-.09 19.41-.27 43.36-.34 43.36-.03 43.36.09m-.02-7.63c0 .12-19.42.28-43.36.35s-43.36 0-43.36-.1 19.41-.27 43.36-.34 43.36 0 43.36.09m-.02-7.56c0 .12-19.42.27-43.36.34s-43.36 0-43.37-.09 19.41-.28 43.37-.35 43.36-.02 43.36.1m-.03-7.6c0 .12-19.41.27-43.35.34s-43.37 0-43.37-.09 19.41-.28 43.36-.35 43.36-.02 43.36.1m-.02-7.6c0 .12-19.41.27-43.36.34s-43.36 0-43.36-.09 19.41-.27 43.36-.34 43.36-.03 43.36.09m-.02-7.6c0 .12-19.41.27-43.36.34s-43.36 0-43.36-.09 19.41-.27 43.36-.34 43.36-.03 43.36.09m-.02-7.64c0 .12-19.42.28-43.36.35s-43.36 0-43.36-.1 19.41-.27 43.36-.34 43.36.01 43.36.09" fill="#ebebeb"/><path d="m232.68 349.18 6.22-.02.04 11.84-6.22.02zm45.17-.13 6.22-.01.04 11.84-6.22.01zm-32.95-8.65 6.23-.03.06 20.55-6.22.02zm22.72-5.38 6.22-.02.08 25.9-6.22.01zm-11.23-15.74 6.22-.02.12 41.63-6.22.02zm32.53 8.46h6.22v33.93h-6.22z" fill="#ef4444"/><path d="M303.59 360.79c0 .12-17.07.27-38.11.33s-38.12 0-38.12-.11 17.06-.26 38.12-.32 38.11-.02 38.11.1" fill="#263238"/><path d="M218.65 192.66v100.38h217.12V192.66z" fill="#f5f5f5"/><path d="M233.92 262v3.17h-.33v-2.88h-.74V262Zm.76 1.58c0-1 .53-1.61 1.26-1.61s1.27.6 1.27 1.61-.53 1.61-1.27 1.61-1.26-.6-1.26-1.61m2.2 0c0-.85-.38-1.31-.94-1.31s-.93.46-.93 1.31.38 1.31.93 1.31.94-.46.94-1.31m-1.67-18.41v.29H233v-.23l1.32-1.29c.36-.35.43-.57.43-.78 0-.37-.26-.6-.75-.6a1 1 0 0 0-.86.36l-.23-.2a1.4 1.4 0 0 1 1.12-.46c.64 0 1.05.33 1.05.86a1.3 1.3 0 0 1-.52 1l-1.08 1.06Zm.39-1.29c0-1 .53-1.62 1.26-1.62s1.27.61 1.27 1.62-.53 1.61-1.27 1.61-1.26-.61-1.26-1.61m2.2 0c0-.85-.38-1.32-.94-1.32s-.93.47-.93 1.32.38 1.31.93 1.31.94-.47.94-1.31m-2.66-19.04c0 .53-.39.94-1.15.94a1.6 1.6 0 0 1-1.14-.41l.16-.25a1.4 1.4 0 0 0 1 .36c.52 0 .81-.24.81-.64s-.26-.62-.85-.62h-.23V224l.88-1.1H233v-.29h2v.23l-.9 1.12c.7.04 1.04.38 1.04.88m.46-.67c0-1 .53-1.61 1.26-1.61s1.27.6 1.27 1.61-.53 1.61-1.27 1.61-1.26-.6-1.26-1.61m2.2 0c0-.85-.38-1.31-.94-1.31s-.93.46-.93 1.31.38 1.31.93 1.31.94-.48.94-1.31M247.91 274c0-1 .53-1.62 1.26-1.62s1.27.61 1.27 1.62-.53 1.61-1.27 1.61-1.26-.61-1.26-1.61m2.2 0c0-.85-.38-1.32-.94-1.32s-.93.47-.93 1.32.38 1.31.93 1.31.94-.49.94-1.31m21.26-1.61v3.17H271v-2.88h-.75v-.29Zm24.72 2.88v.29h-2.22v-.23l1.31-1.29c.36-.35.43-.57.43-.78 0-.37-.26-.6-.74-.6a1.1 1.1 0 0 0-.87.36l-.23-.2a1.4 1.4 0 0 1 1.12-.46c.65 0 1.05.33 1.05.86a1.3 1.3 0 0 1-.52 1l-1.07 1.06Zm23.37-.62c0 .53-.39.94-1.15.94a1.6 1.6 0 0 1-1.14-.41l.16-.26a1.4 1.4 0 0 0 1 .37c.53 0 .81-.25.81-.64s-.26-.63-.85-.63H318v-.24l.88-1.1h-1.58v-.29h2v.23l-.9 1.13c.72.04 1.06.39 1.06.9m24.03.08h-.63v.83h-.33v-.83h-1.78v-.24l1.68-2.1h.36l-1.62 2.05h1.37v-.74h.32v.74h.63Zm22.9-.1c0 .54-.38 1-1.15 1a1.7 1.7 0 0 1-1.14-.41l.16-.26a1.4 1.4 0 0 0 1 .37c.53 0 .82-.26.82-.65s-.25-.66-1.06-.66h-.68l.17-1.59h1.73v.29h-1.45l-.11 1h.41c.91-.03 1.3.35 1.3.91m23.67-.02a1 1 0 0 1-1.08 1c-.85 0-1.3-.59-1.3-1.59s.59-1.64 1.45-1.64a1.4 1.4 0 0 1 .75.18l-.13.26a1 1 0 0 0-.62-.15c-.68 0-1.12.44-1.12 1.3v.26a1 1 0 0 1 1-.55 1 1 0 0 1 1.05.93m-.32 0c0-.41-.31-.68-.8-.68a.74.74 0 0 0-.82.69c0 .35.29.68.84.68a.7.7 0 0 0 .78-.68Zm23.61-2.22v.23l-1.35 2.94h-.35l1.31-2.88h-1.63v.59H411v-.88Zm.17-8.66c0 .17-36.68.31-81.92.31s-81.92-.14-81.92-.31 36.67-.31 81.92-.31 81.92.14 81.92.31m0-19.8c0 .17-36.68.3-81.92.3s-81.92-.13-81.92-.3 36.67-.31 81.92-.31 81.92.14 81.92.31m0-19.81c0 .17-36.68.31-81.92.31s-81.92-.14-81.92-.31 36.67-.31 81.92-.31 81.92.19 81.92.31" fill="#263238"/><path d="M249.68 263.44a1.06 1.06 0 1 1-1.05-1.05 1 1 0 0 1 1.05 1.05m23.55 0a1.05 1.05 0 1 1-1.05-1.05 1 1 0 0 1 1.05 1.05m23.56 0a1.05 1.05 0 1 1-1.05-1.05 1 1 0 0 1 1.05 1.05m23.56 0a1.06 1.06 0 1 1-1.05-1.05 1 1 0 0 1 1.05 1.05m23.55 0a1 1 0 1 1-1-1.05 1 1 0 0 1 1 1.05m47.1 0a1.06 1.06 0 1 1-1.06-1.05 1.05 1.05 0 0 1 1.06 1.05m-23.54 0a1.05 1.05 0 1 1-1-1.05 1 1 0 0 1 1 1.05m47.11 0a1.05 1.05 0 1 1-1.05-1.05 1 1 0 0 1 1.05 1.05" fill="#ef4444"/><path d="M260.41 263.73a.69.69 0 1 1-.69-.69.7.7 0 0 1 .69.69m23.65 0a.69.69 0 1 1-.69-.69.7.7 0 0 1 .69.69m23.64 0a.69.69 0 1 1-.7-.73.7.7 0 0 1 .7.73m23.65 0a.69.69 0 1 1-.69-.69.7.7 0 0 1 .69.69m23.65 0a.69.69 0 1 1-.69-.69.7.7 0 0 1 .69.69m23.64 0a.69.69 0 1 1-.64-.73.7.7 0 0 1 .64.73m23.64 0a.69.69 0 1 1-.69-.69.7.7 0 0 1 .69.69" fill="#e0e0e0"/><path d="M274.76 255a2.58 2.58 0 1 1-2.58-2.58 2.6 2.6 0 0 1 2.58 2.58m20.56-12.15a2.59 2.59 0 1 1-2.59-2.58 2.6 2.6 0 0 1 2.59 2.58m25.5 1.08a2.58 2.58 0 1 1-2.58-2.58 2.6 2.6 0 0 1 2.58 2.58m24.91-22.05a2.58 2.58 0 1 1-2.58-2.58 2.6 2.6 0 0 1 2.58 2.58M369 235.9a2.58 2.58 0 1 1-2.58-2.58 2.6 2.6 0 0 1 2.58 2.58m23.54 3.73a2.58 2.58 0 1 1-2.58-2.58 2.57 2.57 0 0 1 2.58 2.58" fill="#ef4444"/><path d="M414.57 255h-.6a13 13 0 0 1-1.76-.24 13.3 13.3 0 0 1-6.13-2.91 13 13 0 0 1-3-3.92 29 29 0 0 0-3.15-4.88 10.4 10.4 0 0 0-5.33-3.71 7 7 0 0 0-3.52.12 10 10 0 0 0-3.27 1.85c-2 1.68-3.48 4.06-5.43 6.23a11 11 0 0 1-3.54 2.75 7.2 7.2 0 0 1-4.65.38 5.8 5.8 0 0 1-3.54-3.25 23 23 0 0 1-1.53-4.7 27 27 0 0 0-1.4-4.78 3.7 3.7 0 0 0-1.51-1.8 5 5 0 0 0-2.38-.47 40 40 0 0 0-5.18.92 15 15 0 0 1-2.73.31 6 6 0 0 1-2.78-.54 5.6 5.6 0 0 1-2.2-1.85 13 13 0 0 1-1.35-2.5c-.75-1.75-1.25-3.57-1.92-5.33a14 14 0 0 0-1.25-2.5 4.5 4.5 0 0 0-2-1.7l-.65-.19-.68-.07a2.5 2.5 0 0 0-1.26.26 5 5 0 0 0-1.88 2 24 24 0 0 0-2.19 5.42c-.56 1.9-1 3.84-1.49 5.8-.75 3.25-1.43 6.49-2.26 9.66a49 49 0 0 1-1.45 4.68 12 12 0 0 1-2.45 4.25 3.3 3.3 0 0 1-2.32 1 4.7 4.7 0 0 1-2.39-.72 11 11 0 0 1-3.34-3.38 41 41 0 0 1-4-8.21c-1.13-2.72-2.41-5.41-4.51-7.26a8.5 8.5 0 0 0-7.58-1.84 13 13 0 0 0-3.6 1.58 25 25 0 0 0-3.15 2.28 42 42 0 0 0-5.25 5.28 57 57 0 0 1-7.78 6.46 38 38 0 0 1-8 4.32 17.4 17.4 0 0 1-7.8 1.3 28 28 0 0 1-6.5-1.57 62 62 0 0 1-8.44-3.86 45 45 0 0 1-2.8-1.66l.73.39 2.14 1.14a66 66 0 0 0 8.46 3.73 27 27 0 0 0 6.43 1.49 17 17 0 0 0 7.64-1.33 38 38 0 0 0 7.85-4.31 56 56 0 0 0 7.68-6.44 42 42 0 0 1 5.3-5.38A26 26 0 0 1 302 235a14 14 0 0 1 3.75-1.66 9 9 0 0 1 8.08 1.95c2.23 1.95 3.53 4.73 4.68 7.46a41 41 0 0 0 4 8.09 11 11 0 0 0 3.16 3.2 4 4 0 0 0 2.08.64 2.8 2.8 0 0 0 1.9-.86 12 12 0 0 0 2.3-4 48 48 0 0 0 1.42-4.62c.83-3.15 1.5-6.39 2.26-9.65.46-2 .93-3.92 1.5-5.84a24 24 0 0 1 2.25-5.56 6 6 0 0 1 2.14-2.19 3 3 0 0 1 1.56-.33l.77.08q.38.1.74.22a5 5 0 0 1 2.33 1.93 13 13 0 0 1 1.31 2.62c.69 1.8 1.18 3.62 1.91 5.31s1.63 3.37 3.25 4.06 3.44.49 5.15.19a41 41 0 0 1 5.27-.91 5.3 5.3 0 0 1 2.67.54 4.2 4.2 0 0 1 1.74 2.06 27 27 0 0 1 1.43 4.88 22 22 0 0 0 1.47 4.6 5.3 5.3 0 0 0 3.21 3 6.6 6.6 0 0 0 4.31-.34 10 10 0 0 0 3.36-2.67c1.92-2.11 3.42-4.51 5.5-6.24a10 10 0 0 1 3.43-1.91 7 7 0 0 1 3.73-.11 10.7 10.7 0 0 1 5.5 3.87 29 29 0 0 1 3.15 5 13 13 0 0 0 2.91 3.87 13.4 13.4 0 0 0 6 3 13 13 0 0 0 1.74.29z" fill="#ef4444"/><path d="M275 210.55c0 .17-9.14.31-20.42.31s-20.43-.14-20.43-.31 9.15-.31 20.43-.31 20.42.14 20.42.31" fill="#263238"/><path d="M444.43 193.31v98.13h104.43v-98.13z" fill="#f5f5f5"/><path d="M496.18 204.43a32.22 32.22 0 1 0 32.22 32.22 32.2 32.2 0 0 0-32.22-32.22m.49 51.53a19.8 19.8 0 1 1 19.79-19.8A19.8 19.8 0 0 1 496.67 256Z" fill="#263238"/><path d="M496.68 204.44v11.93a19.8 19.8 0 0 1 18.86 25.79l11.68 3.17a32.22 32.22 0 0 0-30.53-40.89Z" fill="#ef4444"/><path d="M476.87 236.16a19.8 19.8 0 0 1 11.74-18.07l-5-11.13A32.2 32.2 0 0 0 464 236.65V238h13q-.13-.9-.13-1.84" fill="#455a64"/><path d="M496.67 256a20 20 0 0 1-4.19-.45c-.5 2.87-1.44 8.43-2.18 12.81a32 32 0 0 0 5.88.55 32.2 32.2 0 0 0 31-23.54l-11.68-3.17a19.8 19.8 0 0 1-18.83 13.8" fill="#ef4444"/><path d="M496.67 256a20 20 0 0 1-4.19-.45c-.5 2.87-1.44 8.43-2.18 12.81a32 32 0 0 0 5.88.55 32.2 32.2 0 0 0 31-23.54l-11.68-3.17a19.8 19.8 0 0 1-18.83 13.8" opacity=".3"/><path d="M492.39 237.76h-1.19v1.54h-1.65v-1.54h-3.95v-1.14l3.45-4.64h1.78l-3.2 4.4h2V235h1.6v1.37h1.19Zm.5-2.12c0-2.41 1.34-3.79 3.14-3.79s3.14 1.38 3.14 3.79-1.33 3.79-3.14 3.79-3.14-1.37-3.14-3.79m4.57 0c0-1.66-.58-2.35-1.43-2.35s-1.42.69-1.42 2.35.58 2.36 1.39 2.36 1.46-.7 1.46-2.36m2.41-1.72a1.82 1.82 0 1 1 1.82 2 1.82 1.82 0 0 1-1.82-2m2.58 0c0-.79-.3-1.17-.76-1.17s-.77.39-.77 1.17.32 1.16.77 1.16.76-.38.76-1.16m3.6-1.94h1.24l-5 7.32h-1.24Zm-1.2 5.39a1.83 1.83 0 1 1 1.81 2 1.8 1.8 0 0 1-1.81-2m2.57 0c0-.78-.3-1.16-.76-1.16s-.77.37-.77 1.16.32 1.16.77 1.16.76-.39.76-1.16M522.84 277c0 .17-11.93.3-26.66.3s-26.66-.13-26.66-.3 11.94-.31 26.66-.31 26.66.14 26.66.31M511 281.89c0 .17-6.62.31-14.79.31s-14.79-.14-14.79-.31 6.62-.3 14.79-.3 14.79.14 14.79.3" fill="#263238"/><path d="M327.21 297.97H536.8v68.86H327.21z" fill="#fafafa"/><path d="M519.12 314.26c0 .12-35.62.22-79.55.22s-79.55-.1-79.55-.22 35.61-.22 79.55-.22 79.55.1 79.55.22m0 8.15c0 .12-35.62.22-79.55.22s-79.55-.1-79.55-.22 35.61-.22 79.55-.22 79.55.09 79.55.22m0 8.15c0 .12-35.62.22-79.55.22s-79.55-.1-79.55-.22 35.61-.23 79.55-.23 79.55.1 79.55.23m0 8.14c0 .13-35.62.22-79.55.22s-79.57-.09-79.57-.22 35.61-.22 79.55-.22 79.57.1 79.57.22m0 8.15c0 .12-35.62.22-79.55.22S360 347 360 346.85s35.61-.22 79.55-.22 79.57.1 79.57.22" fill="#ebebeb"/><path d="M505.27 337.36s-.11.13-.35.36a5 5 0 0 1-1.34.74 7.1 7.1 0 0 1-5.8-.93 10 10 0 0 1-2.74-3c-.76-1.23-1.36-2.66-2.08-4.15a13 13 0 0 0-3.11-4.33 7 7 0 0 0-2.71-1.43 8 8 0 0 0-3.32-.16 13.4 13.4 0 0 0-6.35 2.91c-1.9 1.49-3.56 3.31-5.6 5a13.7 13.7 0 0 1-7.69 3.27 8 8 0 0 1-4.39-1 9.6 9.6 0 0 1-3.07-3.07c-1.58-2.36-2.38-5.12-4.44-7.28a7.4 7.4 0 0 0-3.85-2.31 6 6 0 0 0-4.52.94 9 9 0 0 0-3 3.44 19 19 0 0 0-1.41 4.29 24 24 0 0 1-1.39 4.45 9.3 9.3 0 0 1-3.17 3.82 13 13 0 0 1-4.85 2.1 13 13 0 0 1-5.35.06 13 13 0 0 1-4.73-2c-1.4-.9-2.66-1.9-4-2.8a12 12 0 0 0-4.3-2 7 7 0 0 0-4.6.52 10 10 0 0 0-3.43 2.77 26 26 0 0 0-2.33 3.53 27 27 0 0 1-2.29 3.49 10 10 0 0 1-3.3 2.72 7.6 7.6 0 0 1-4.31.87 6.4 6.4 0 0 1-3.74-1.81 9 9 0 0 1-2.07-3.11 21 21 0 0 1-.94-3.33c-.46-2.18-.91-4.31-2.21-6a7.8 7.8 0 0 0-5.11-3.3 6.5 6.5 0 0 0-3 .32 8 8 0 0 0-2.36 1.35c-2.69 2.23-4 4.92-6 6.48a8.6 8.6 0 0 1-5.34 2.33 5 5 0 0 1-1.56-.24l-.49-.19a6 6 0 0 0 2 .34 8.6 8.6 0 0 0 5.21-2.36c1.94-1.55 3.18-4.24 5.91-6.54a8 8 0 0 1 2.45-1.42 7 7 0 0 1 3.1-.35 8 8 0 0 1 5.38 3.41 10 10 0 0 1 1.48 2.89 33 33 0 0 1 .81 3.22 20 20 0 0 0 .94 3.28 9 9 0 0 0 2 3 6 6 0 0 0 3.49 1.68 7 7 0 0 0 4-.84 10 10 0 0 0 3.15-2.61 26 26 0 0 0 2.25-3.45 26 26 0 0 1 2.36-3.58 11 11 0 0 1 3.59-2.9 7.6 7.6 0 0 1 4.95-.57 13 13 0 0 1 4.49 2.11c1.35.91 2.61 1.91 4 2.79a12 12 0 0 0 4.54 1.94 13 13 0 0 0 5.12-.06 12 12 0 0 0 4.65-2 10 10 0 0 0 1.79-1.65 10 10 0 0 0 1.22-2 23 23 0 0 0 1.38-4.38 20 20 0 0 1 1.44-4.37 9.5 9.5 0 0 1 3.13-3.6 6.6 6.6 0 0 1 4.94-1 8 8 0 0 1 4.12 2.47c2.13 2.26 2.93 5 4.47 7.34a9.4 9.4 0 0 0 2.91 2.94 7.4 7.4 0 0 0 4.12 1 13.2 13.2 0 0 0 7.42-3.15c2-1.62 3.69-3.45 5.62-4.95a14 14 0 0 1 6.56-3 9 9 0 0 1 3.49.18 8 8 0 0 1 2.82 1.51 13 13 0 0 1 3.15 4.44 46 46 0 0 0 2 4.15 9 9 0 0 0 2.64 2.95 7 7 0 0 0 5.65 1 4.4 4.4 0 0 0 1.9-1.18" fill="#455a64"/><path d="M515.33 335.46h-.55a5 5 0 0 1-.68-.08 7 7 0 0 1-.88-.27 15 15 0 0 1-4.74-3.46q-.66-.68-1.36-1.44a15 15 0 0 0-1.47-1.57 8.4 8.4 0 0 0-4.68-1.85 8 8 0 0 0-2.86.31 7 7 0 0 0-2.54 1.49 52 52 0 0 0-4.19 4.7 12 12 0 0 1-2.69 2.26 9 9 0 0 1-3.66 1.19 19 19 0 0 1-8.08-1.31c-2.64-.95-5.16-2.26-8-3.1a17 17 0 0 0-4.42-.77 11 11 0 0 0-4.46.84c-2.84 1.18-5.06 3.34-7.74 5.09a16 16 0 0 1-4.48 2.13 19 19 0 0 1-5.13.77 21 21 0 0 1-10.2-2.45 23 23 0 0 1-7.73-6.67c-2.07-2.69-3.21-5.75-4.71-8.54a17 17 0 0 0-2.73-3.88 12 12 0 0 0-4-2.7 8 8 0 0 0-4.86-.45 8.4 8.4 0 0 0-4 2.3 12 12 0 0 0-2.42 3.64 27 27 0 0 0-1.25 4c-.33 1.35-.63 2.7-1.05 4a16 16 0 0 1-1.73 3.73 18 18 0 0 1-5.84 5.71 19 19 0 0 1-7.62 2.68A18 18 0 0 1 377 341c-4.61-1.44-7.87-4.54-9.08-7.72-.63-1.59-.95-3.11-1.4-4.47a10 10 0 0 0-1.81-3.5 7 7 0 0 0-5.26-2.33 4.3 4.3 0 0 0-2 .63 3.5 3.5 0 0 1 2-.72 7 7 0 0 1 5.42 2.32 10 10 0 0 1 1.89 3.54c.47 1.37.8 2.89 1.44 4.44 1.21 3.11 4.41 6.13 8.93 7.52a18 18 0 0 0 7.36.71 18 18 0 0 0 7.42-2.63 17.6 17.6 0 0 0 5.69-5.61 23 23 0 0 0 2.72-7.62 27 27 0 0 1 1.26-4.08 12 12 0 0 1 2.5-3.76 8.5 8.5 0 0 1 9.47-2 12 12 0 0 1 4.21 2.81 18 18 0 0 1 2.82 4c1.52 2.84 2.64 5.85 4.67 8.49a23 23 0 0 0 7.57 6.54 20.6 20.6 0 0 0 9.92 2.39 19 19 0 0 0 5-.74 17 17 0 0 0 4.35-2.06c2.63-1.72 4.87-3.9 7.83-5.12a11 11 0 0 1 4.67-.88 17 17 0 0 1 4.55.8c2.89.86 5.43 2.19 8 3.13a18 18 0 0 0 7.87 1.31 9 9 0 0 0 3.5-1.12 11 11 0 0 0 2.61-2.19 54 54 0 0 1 4.25-4.7 8 8 0 0 1 2.67-1.54 8 8 0 0 1 3-.31 8.6 8.6 0 0 1 4.82 1.95 17 17 0 0 1 1.48 1.6q.68.78 1.33 1.44a15 15 0 0 0 4.63 3.49 5 5 0 0 0 2.03.45" fill="#ef4444"/><path d="M349.1 314.66a5 5 0 0 1-2.11.23 5 5 0 0 1-2.1-.23 5 5 0 0 1 2.1-.22 5 5 0 0 1 2.11.22m0 7.75a5 5 0 0 1-2.11.22 5 5 0 0 1-2.1-.22 5 5 0 0 1 2.1-.22 5 5 0 0 1 2.11.22m0 7.74a5 5 0 0 1-2.11.22 5 5 0 0 1-2.1-.22 5 5 0 0 1 2.1-.22 5 5 0 0 1 2.11.22m0 7.74a5 5 0 0 1-2.11.23 5 5 0 0 1-2.1-.23 5 5 0 0 1 2.1-.22 5 5 0 0 1 2.11.22m0 7.75a5 5 0 0 1-2.11.22 5 5 0 0 1-2.1-.22 5 5 0 0 1 2.1-.23 5 5 0 0 1 2.11.23m19.33 9.95a40 40 0 0 1-8.41 0 40 40 0 0 1 8.41 0m37.1 0a40 40 0 0 1-8.41 0 40 40 0 0 1 8.41 0m37.1 0a40 40 0 0 1-8.42 0 40 40 0 0 1 8.42 0m37.1 0a40 40 0 0 1-8.42 0 40 40 0 0 1 8.42 0m37.09 0a40 40 0 0 1-8.41 0 40 40 0 0 1 8.41 0" fill="#e0e0e0"/><path d="M565.51 253.81S592 255 594.85 278.13s-19.49 22.29-26 22.36h-14.28c-11.7-.06-21-4.45-23.32-15.92a21 21 0 0 1-.43-4.08c-.03-12.49 9.31-28.73 34.69-26.68" fill="#ef4444"/><path d="m540.9 280.84 33.88 2.4a6.45 6.45 0 0 0 6.89-6 6.45 6.45 0 0 0-6-6.89L541.81 268a6.44 6.44 0 0 0-6.88 6 6.44 6.44 0 0 0 5.97 6.84" fill="#263238"/><path d="M567.32 277.22a2.07 2.07 0 1 0 1.77-2.34 2.07 2.07 0 0 0-1.77 2.34m-23.67-1.69a2.07 2.07 0 1 0 1.77-2.33 2.07 2.07 0 0 0-1.77 2.33m13.5-8.13a20 20 0 0 0 .78-2.48 23 23 0 0 1 2.47-5.69 12 12 0 0 1 4.32-4.3 20 20 0 0 1 2.39-1 2 2 0 0 0-.7.08 9 9 0 0 0-1.82.63 11 11 0 0 0-4.54 4.35 20 20 0 0 0-2.4 5.82q-.28 1.19-.41 1.86a3 3 0 0 0-.09.73m3.77 33.1c0-.05-.8-.66-1.89-1.89A14.5 14.5 0 0 1 556 293a25 25 0 0 1-.84-6.37 22 22 0 0 0 0-2.69 3 3 0 0 0-.12.72q-.08.7-.16 2a22 22 0 0 0 .73 6.49 14 14 0 0 0 3.26 5.64 13 13 0 0 0 1.49 1.32c.32.28.54.42.56.39" fill="#fff"/><path d="M537.29 295.25c2.76-1.91 4.86-1.84 8.36-2.5a65 65 0 0 1 10.63-.91c8.21-.18 16.69.15 23.76 3a10.3 10.3 0 0 1 4.77 3.35s-3.4 1.85-10.39 2.13c-6.68.26-20.67.11-20.67.11a33 33 0 0 1-11.63-2.25c-4.43-1.88-4.83-2.93-4.83-2.93" opacity=".3"/><path d="M532.84 273.58a5 5 0 0 0-.13 1.23 7.4 7.4 0 0 0 .8 3.43 8 8 0 0 0 4.08 3.74 23 23 0 0 0 7.27 1.38l19.19 1.48 5.54.43c1.89.12 3.82.35 5.81.33a9 9 0 0 0 5.75-1.82 8.5 8.5 0 0 0 1.37-11.46 9.2 9.2 0 0 0-5-3.42 16 16 0 0 0-2.93-.42l-2.86-.26-5.54-.51-10.19-.94c-3.22-.23-6.18-.71-8.93-.88a30 30 0 0 0-3.92 0 15 15 0 0 0-3.45.61 11 11 0 0 0-4.8 2.83 8 8 0 0 0-1.79 3 6 6 0 0 0-.21.89v.31s.07-.42.33-1.18a8 8 0 0 1 1.83-2.95 11 11 0 0 1 4.74-2.72 14 14 0 0 1 3.41-.56 28 28 0 0 1 3.89 0c2.72.18 5.69.68 8.9.93l10.24 1 5.54.53 2.86.27a15 15 0 0 1 2.86.41 8.8 8.8 0 0 1 4.75 3.28 8 8 0 0 1 1.48 5.7 8 8 0 0 1-2.78 5.19 8.6 8.6 0 0 1-5.5 1.74c-1.94 0-3.88-.21-5.77-.33l-5.55-.4-19.19-1.4a23 23 0 0 1-7.2-1.3 8 8 0 0 1-4-3.6 7.6 7.6 0 0 1-.86-3.36 12 12 0 0 1-.04-1.2" fill="#fff"/><path d="M595 282a6 6 0 0 0-1.41-.93 23 23 0 0 0-3.74-1.61 22 22 0 0 0-4-.92 6 6 0 0 0-1.69-.1c0 .13 2.54.42 5.52 1.41S595 282.11 595 282m-30.73-24.72a.33.33 0 1 0 0 .58.34.34 0 0 0 0-.56m-3.27 6.53a.34.34 0 0 0-.46.31.33.33 0 1 0 .49-.3m27.05 13.27a.34.34 0 0 0-.46.32.33.33 0 1 0 .49-.3m5.47 2.01a.34.34 0 0 0-.47.31.33.33 0 1 0 .49-.3" fill="#fff"/><path d="M558.59 255.16c0 .3 2.39.64 6.22 1.3a49 49 0 0 1 14.24 4.42 27 27 0 0 1 6.49 4.81 23 23 0 0 1 3.92 5.3c1.77 3.36 2 5.82 2.31 5.78.12 0 .23-.63.16-1.76a15 15 0 0 0-1.15-4.64 21 21 0 0 0-3.87-6 26 26 0 0 0-6.9-5.32 34 34 0 0 0-8.11-3A46 46 0 0 0 565 255c-3.95-.28-6.39-.11-6.41.16m30.09 33.62c.4.39 1.81-.43 2.69-2.12s.74-3.3.19-3.4-1.28 1.05-2 2.45-1.29 2.67-.88 3.07" fill="#fff" opacity=".3"/><path d="M552.75 276a2.6 2.6 0 0 0 .26 1.74 4 4 0 0 0 3.38 2.42 4 4 0 0 0 3.75-1.81 2.6 2.6 0 0 0 .56-1.66 9 9 0 0 1-.79 1.5 4 4 0 0 1-1.37 1.15 4 4 0 0 1-2.11.41 4 4 0 0 1-2-.77 4 4 0 0 1-1.14-1.37 8 8 0 0 1-.54-1.61" fill="#fff"/><path d="M532.42 308.72c-1.54.56.22 23.34 1.41 34.95.64 6.22 1.58 12.68 5.15 17.82 4 5.72 11 8.26 18 9 9.65 1 17.21-3.54 21.59-11.21a66 66 0 0 0 8.2-24c1.22-9.58 2-15.82 1.78-24.2-.04.04-28.11-12.56-56.13-2.36" fill="#ef4444"/><path d="M571.05 354.73a.34.34 0 0 0-.48.28.35.35 0 0 0 .48.3.35.35 0 0 0 0-.57m-10.13.33a.34.34 0 0 0-.48.28.35.35 0 0 0 .48.3.35.35 0 0 0 0-.57m-11.79-9.63a.33.33 0 1 0 0 .58.35.35 0 0 0 0-.57m3.19-26.13a.33.33 0 1 0 0 .58.35.35 0 0 0 0-.57m-10.04 4.96a.35.35 0 0 0-.48.29.34.34 0 0 0 .48.29.34.34 0 0 0 0-.56m40 26.59a.35.35 0 0 0-.49.28.36.36 0 0 0 .49.3.35.35 0 0 0 0-.57m1.04-8.7a.34.34 0 0 0-.48.28.35.35 0 0 0 .48.3.35.35 0 0 0 0-.57m.17-7.83a.35.35 0 0 0-.49.29.33.33 0 1 0 .51-.27m.11-8.32a.35.35 0 0 0-.49.29.33.33 0 1 0 .51-.27M536 322.74a.34.34 0 0 0-.48.28.33.33 0 1 0 .51-.27m12.12 32.47a.33.33 0 1 0 0 .58.35.35 0 0 0 0-.58m-.51 8.22a.33.33 0 1 0 0 .58.35.35 0 0 0 0-.57m25.1 1.42a3 3 0 0 0 .41-.37q.39-.37 1.06-1.15a16 16 0 0 0 3-4.94 27 27 0 0 0 1-3.86q.45-2.1.91-4.48c.6-3.16 1.15-6.66 1.61-10.34a165 165 0 0 0 1.23-19c0-2.43 0-4.4-.08-5.76q.02-.97-.07-1.57a3 3 0 0 0-.06-.54v7.9a189 189 0 0 1-1.35 18.93 185 185 0 0 1-2.45 14.8 25 25 0 0 1-1 3.83 17 17 0 0 1-2.83 4.94q-.64.79-1 1.19a3 3 0 0 0-.38.42m-20.15-23.73c-.11 0-.5 6.32-.87 14.13s-.57 14.15-.46 14.15.5-6.32.87-14.13.57-14.15.46-14.15m9.26-36.14a3 3 0 0 0-.52.6q-.48.62-1.3 1.74a401 401 0 0 0-4.16 5.82l-.6.85-.07.11a.2.2 0 0 0-.08.13v2.73c0 1.22.08 2.31.13 3.22l.14 2.17a3 3 0 0 0 .11.79 22 22 0 0 0 0-3q.01-1.41-.05-3.21v-2.55s.1-.11.13-.18l.59-.85c1.61-2.29 3-4.37 4.07-5.89q.77-1.15 1.19-1.81a3 3 0 0 0 .42-.67" fill="#fff"/><path d="M552.75 353.07a6 6 0 0 0 1 .13 126 126 0 0 0 11.8.29c3.54-.08 6.74-.29 9.05-.51 1.15-.11 2.09-.22 2.73-.31a5 5 0 0 0 1-.17 5 5 0 0 0-1 0l-2.73.18a206 206 0 0 1-18 .39h-2.75a5 5 0 0 0-1.1 0M532.28 324s.19.15.56.35a17 17 0 0 0 1.65.75 34 34 0 0 0 5.71 1.73 43 43 0 0 0 5.91.87 12 12 0 0 0 2.47.05 21 21 0 0 0-2.44-.34 62 62 0 0 1-5.85-1 48 48 0 0 1-5.7-1.6c-1.42-.48-2.28-.87-2.31-.81" fill="#fff"/><path d="M545.34 332.66a9.24 9.24 0 1 0 8.55-9.9 9.24 9.24 0 0 0-8.55 9.9" fill="#263238"/><path d="M547.84 332.47a6.74 6.74 0 1 0 6.23-7.21 6.74 6.74 0 0 0-6.23 7.21" fill="#fff"/><path d="M551.09 333.7a9 9 0 0 0 .06-1.11v-2.91l-.07.14 3.46-2h-.19l3.5 2c.09.16-.13-.21-.11-.17v4l.1-.17-3.43 2.09h.16c-1.07-.58-1.95-1-2.57-1.35a6 6 0 0 0-1-.47 5 5 0 0 0 .87.58c.59.36 1.47.87 2.56 1.51h.07l.08-.05 3.47-2 .09-.05v-4.06l-.1-.18-3.51-1.94-.1-.06-.09.06-3.34 1.99-.08.05v.09c0 1.26.08 2.27.11 3a5 5 0 0 0 .06 1.01" fill="#ef4444"/><path d="M588.51 311.12s-28.1-12.78-56.09-2.4c0 0 13.09 10.72 56.09 2.4" opacity=".2"/><path d="M532.42 308.72s-16.89-13.59-19.86-12.57-4.11 2.58-2.74 6.25 22.6 24 22.6 24Z" fill="#ef4444"/><path d="M533.08 334.69a4 4 0 0 1-.18-1q-.12-1-.26-2.78a232 232 0 0 1-.53-18.39q-.02-1.79.07-2.79a4 4 0 0 1 .11-1 4 4 0 0 1 .1 1q.01 1.16.09 2.78l.23 9.19c.09 3.52.22 6.71.3 9.19 0 1.08.07 2 .1 2.78a4 4 0 0 1-.03 1.02" fill="#263238"/><path d="M578.38 315.76c.84 8.81 3.79 18.49 7 26.75.57-2.53 1-5 1.37-7.19-.36-2.52-2-5.93-3-8.26q-2.52-5.64-5-11.29" opacity=".2"/><path d="M588.51 311.12S604 342.67 598 346.06c-8.46 4.81-20.16-32.91-20.16-32.91l5.48-1.09Z" fill="#ef4444"/><path d="M590 341.14a5 5 0 0 1-.72-1q-.64-.96-1.71-2.76a85 85 0 0 1-4.68-9.63 115 115 0 0 1-4.52-13.19 6 6 0 0 1-.25-1.17 5 5 0 0 1 .44 1.11l1.05 3.07c.88 2.58 2.17 6.13 3.76 10a108 108 0 0 0 6.08 12.49 5 5 0 0 1 .55 1.08M60.02 375.77h109.36v76.13H60.02z" fill="#263238"/><path d="M44.99 398.36h112.5v27.91H44.99z" fill="#455a64"/><path d="M49.98 404.1h22.15v3.41H49.98zm0 5.87h22.15v3.41H49.98zm0 6.06h22.15v3.41H49.98zm30.91-9.87a1.27 1.27 0 1 1-1.27-1.27 1.26 1.26 0 0 1 1.27 1.27m5.61 0a1.27 1.27 0 1 1-1.27-1.27 1.27 1.27 0 0 1 1.27 1.27m5.61 0a1.27 1.27 0 1 1-1.27-1.27 1.27 1.27 0 0 1 1.27 1.27m5.61 0a1.28 1.28 0 1 1-1.27-1.27 1.27 1.27 0 0 1 1.27 1.27m43.45 0a1.27 1.27 0 1 1-1.27-1.27 1.27 1.27 0 0 1 1.27 1.27m5.72 0a1.28 1.28 0 1 1-1.27-1.27 1.27 1.27 0 0 1 1.27 1.27m-43.57 0a1.27 1.27 0 1 1-1.27-1.27 1.27 1.27 0 0 1 1.27 1.27m27.54 0a1.27 1.27 0 1 1-1.27-1.27 1.27 1.27 0 0 1 1.27 1.27" fill="#263238"/><path d="M108.93 406.16a1.27 1.27 0 1 1-1.27-1.27 1.27 1.27 0 0 1 1.27 1.27m5.61 0a1.27 1.27 0 1 1-1.27-1.27 1.27 1.27 0 0 1 1.27 1.27m11.37 0a1.27 1.27 0 1 1-1.27-1.27 1.26 1.26 0 0 1 1.27 1.27m25.63 0a1.27 1.27 0 1 1-1.27-1.27 1.27 1.27 0 0 1 1.27 1.27" fill="#f5f5f5"/><path d="M120.15 406.16a1.28 1.28 0 1 1-1.28-1.27 1.27 1.27 0 0 1 1.28 1.27m16.05 0a1.27 1.27 0 1 1-1.27-1.27 1.27 1.27 0 0 1 1.27 1.27" fill="#ef4444"/><path d="M149 412.29a1.27 1.27 0 1 1 1.27 1.27 1.27 1.27 0 0 1-1.27-1.27m-5.61 0a1.27 1.27 0 1 1 1.27 1.27 1.27 1.27 0 0 1-1.27-1.27m-5.61 0a1.27 1.27 0 1 1 1.27 1.27 1.27 1.27 0 0 1-1.27-1.27m-5.61 0a1.28 1.28 0 1 1 1.28 1.27 1.27 1.27 0 0 1-1.28-1.27m-43.45 0a1.27 1.27 0 1 1 1.28 1.27 1.27 1.27 0 0 1-1.28-1.27m-5.72 0a1.27 1.27 0 1 1 1.27 1.27 1.27 1.27 0 0 1-1.27-1.27m43.57 0a1.27 1.27 0 1 1 1.27 1.27 1.27 1.27 0 0 1-1.27-1.27m-27.57 0a1.27 1.27 0 1 1 1.27 1.27 1.27 1.27 0 0 1-1.27-1.27" fill="#263238"/><path d="M121 412.29a1.27 1.27 0 1 1 1.27 1.27 1.27 1.27 0 0 1-1.27-1.27m-5.65 0a1.27 1.27 0 1 1 1.27 1.27 1.27 1.27 0 0 1-1.27-1.27m-11.35 0a1.27 1.27 0 1 1 1.27 1.27 1.27 1.27 0 0 1-1.27-1.27m-25.65 0a1.27 1.27 0 1 1 1.27 1.27 1.27 1.27 0 0 1-1.27-1.27" fill="#f5f5f5"/><path d="M109.75 412.29a1.27 1.27 0 1 1 1.27 1.27 1.27 1.27 0 0 1-1.27-1.27m-16.06 0a1.27 1.27 0 1 1 1.31 1.27 1.27 1.27 0 0 1-1.31-1.27" fill="#ef4444"/><path d="M80.89 417.74a1.27 1.27 0 1 1-1.27-1.27 1.27 1.27 0 0 1 1.27 1.27" fill="#263238"/><circle cx="85.23" cy="417.74" r="1.27" fill="#263238"/><circle cx="90.84" cy="417.74" r="1.27" fill="#263238"/><circle cx="96.45" cy="417.74" r="1.27" fill="#263238"/><circle cx="139.9" cy="417.74" r="1.27" fill="#263238"/><circle cx="145.62" cy="417.74" r="1.27" fill="#263238"/><path d="M103.32 417.74a1.27 1.27 0 1 1-1.27-1.27 1.27 1.27 0 0 1 1.27 1.27m27.54 0a1.27 1.27 0 1 1-1.27-1.27 1.27 1.27 0 0 1 1.27 1.27" fill="#263238"/><circle cx="107.66" cy="417.74" r="1.27" fill="#f5f5f5"/><path d="M114.54 417.74a1.27 1.27 0 1 1-1.27-1.27 1.27 1.27 0 0 1 1.27 1.27m11.37 0a1.27 1.27 0 1 1-1.27-1.27 1.27 1.27 0 0 1 1.27 1.27m25.63 0a1.27 1.27 0 1 1-1.27-1.27 1.27 1.27 0 0 1 1.27 1.27" fill="#f5f5f5"/><path d="M120.15 417.74a1.28 1.28 0 1 1-1.28-1.27 1.27 1.27 0 0 1 1.28 1.27" fill="#ef4444"/><circle cx="134.93" cy="417.74" r="1.27" fill="#ef4444"/><path d="M44.99 432.8h112.5v27.91H44.99z" fill="#455a64"/><path d="M80.62 440.33a1.28 1.28 0 1 1-1.28-1.27 1.27 1.27 0 0 1 1.28 1.27m5.6 0a1.27 1.27 0 1 1-1.22-1.27 1.27 1.27 0 0 1 1.22 1.27m5.61 0a1.27 1.27 0 1 1-1.27-1.27 1.27 1.27 0 0 1 1.27 1.27m5.61 0a1.27 1.27 0 1 1-1.27-1.27 1.27 1.27 0 0 1 1.27 1.27m43.45 0a1.27 1.27 0 1 1-1.27-1.27 1.27 1.27 0 0 1 1.27 1.27m5.72 0a1.27 1.27 0 1 1-1.27-1.27 1.27 1.27 0 0 1 1.27 1.27m-43.61 0a1.27 1.27 0 1 1-1.27-1.27 1.27 1.27 0 0 1 1.27 1.27m27.58 0a1.27 1.27 0 1 1-1.27-1.27 1.27 1.27 0 0 1 1.27 1.27" fill="#263238"/><path d="M108.65 440.33a1.27 1.27 0 1 1-1.27-1.27 1.27 1.27 0 0 1 1.27 1.27m5.61 0a1.27 1.27 0 1 1-1.27-1.27 1.27 1.27 0 0 1 1.27 1.27m11.38 0a1.28 1.28 0 1 1-1.27-1.27 1.27 1.27 0 0 1 1.27 1.27m25.62 0a1.27 1.27 0 1 1-1.27-1.27 1.27 1.27 0 0 1 1.27 1.27" fill="#f5f5f5"/><path d="M119.87 440.33a1.27 1.27 0 1 1-1.27-1.27 1.27 1.27 0 0 1 1.27 1.27m16.05 0a1.27 1.27 0 1 1-1.27-1.27 1.27 1.27 0 0 1 1.27 1.27" fill="#ef4444"/><path d="M148.72 446.45a1.27 1.27 0 1 1 1.27 1.27 1.27 1.27 0 0 1-1.27-1.27" fill="#263238"/><circle cx="144.38" cy="446.45" r="1.27" fill="#263238"/><path d="M137.5 446.45a1.28 1.28 0 1 1 1.27 1.27 1.27 1.27 0 0 1-1.27-1.27m-5.6 0a1.27 1.27 0 1 1 1.27 1.27 1.27 1.27 0 0 1-1.27-1.27m-43.46 0a1.28 1.28 0 1 1 1.28 1.27 1.27 1.27 0 0 1-1.28-1.27m-5.71 0a1.27 1.27 0 1 1 1.27 1.27 1.27 1.27 0 0 1-1.27-1.27" fill="#263238"/><circle cx="127.56" cy="446.45" r="1.27" fill="#263238"/><circle cx="100.02" cy="446.45" r="1.27" fill="#263238"/><path d="M120.68 446.45a1.27 1.27 0 1 1 1.27 1.27 1.27 1.27 0 0 1-1.27-1.27m-5.61 0a1.28 1.28 0 1 1 1.28 1.27 1.27 1.27 0 0 1-1.28-1.27" fill="#f5f5f5"/><circle cx="104.97" cy="446.45" r="1.27" fill="#f5f5f5"/><path d="M78.07 446.45a1.28 1.28 0 1 1 1.27 1.27 1.27 1.27 0 0 1-1.27-1.27" fill="#f5f5f5"/><path d="M109.47 446.45a1.27 1.27 0 1 1 1.27 1.27 1.27 1.27 0 0 1-1.27-1.27m-16.06 0a1.27 1.27 0 1 1 1.27 1.27 1.27 1.27 0 0 1-1.27-1.27" fill="#ef4444"/><path d="M80.62 451.9a1.28 1.28 0 1 1-1.28-1.27 1.27 1.27 0 0 1 1.28 1.27m5.6 0a1.27 1.27 0 1 1-1.22-1.27 1.27 1.27 0 0 1 1.22 1.27m5.61 0a1.27 1.27 0 1 1-1.27-1.27 1.27 1.27 0 0 1 1.27 1.27m5.61 0a1.27 1.27 0 1 1-1.27-1.27 1.27 1.27 0 0 1 1.27 1.27m43.45 0a1.27 1.27 0 1 1-1.27-1.27 1.27 1.27 0 0 1 1.27 1.27m5.72 0a1.27 1.27 0 1 1-1.27-1.27 1.27 1.27 0 0 1 1.27 1.27m-43.61 0a1.27 1.27 0 1 1-1.27-1.27 1.27 1.27 0 0 1 1.27 1.27m27.58 0a1.27 1.27 0 1 1-1.27-1.27 1.27 1.27 0 0 1 1.27 1.27" fill="#263238"/><path d="M108.65 451.9a1.27 1.27 0 1 1-1.27-1.27 1.27 1.27 0 0 1 1.27 1.27m5.61 0a1.27 1.27 0 1 1-1.27-1.27 1.27 1.27 0 0 1 1.27 1.27m11.38 0a1.28 1.28 0 1 1-1.27-1.27 1.27 1.27 0 0 1 1.27 1.27m25.62 0a1.27 1.27 0 1 1-1.27-1.27 1.27 1.27 0 0 1 1.27 1.27" fill="#f5f5f5"/><path d="M119.87 451.9a1.27 1.27 0 1 1-1.27-1.27 1.27 1.27 0 0 1 1.27 1.27m16.05 0a1.27 1.27 0 1 1-1.27-1.27 1.27 1.27 0 0 1 1.27 1.27" fill="#ef4444"/><path d="M49.98 438.55h22.15v3.41H49.98zm0 5.86h22.15v3.41H49.98zm0 6.06h22.15v3.41H49.98zm131.29-24.25-23.78.05v-27.91l23.78-.05zm0 34.23-23.78.04v-27.91l23.78-.04zM50.8 381.84h22.15v3.41H50.8zm130.47 10.44-23.78.05v-28.12l23.78-.05z" fill="#263238"/><path d="M45.8 364.16h112.5v27.91H45.8z" fill="#455a64"/><path d="M50.8 369.91h22.15v3.41H50.8zm0 5.86h22.15v3.41H50.8zM81.71 372a1.27 1.27 0 1 1-1.27-1.27 1.27 1.27 0 0 1 1.27 1.27m5.61 0a1.28 1.28 0 1 1-1.27-1.27 1.27 1.27 0 0 1 1.27 1.27m5.6 0a1.27 1.27 0 1 1-1.27-1.27 1.27 1.27 0 0 1 1.27 1.27m5.61 0a1.27 1.27 0 1 1-1.27-1.27 1.27 1.27 0 0 1 1.27 1.27m43.47 0a1.27 1.27 0 1 1-1.27-1.27A1.27 1.27 0 0 1 142 372m5.7 0a1.27 1.27 0 1 1-1.27-1.27 1.27 1.27 0 0 1 1.27 1.27m-43.56 0a1.27 1.27 0 1 1-1.27-1.27 1.27 1.27 0 0 1 1.27 1.27m27.54 0a1.28 1.28 0 1 1-1.28-1.27 1.27 1.27 0 0 1 1.28 1.27" fill="#263238"/><path d="M109.75 372a1.28 1.28 0 1 1-1.28-1.27 1.27 1.27 0 0 1 1.28 1.27m5.6 0a1.27 1.27 0 1 1-1.27-1.27 1.27 1.27 0 0 1 1.27 1.27m11.38 0a1.27 1.27 0 1 1-1.27-1.27 1.27 1.27 0 0 1 1.27 1.27m25.62 0a1.27 1.27 0 1 1-1.27-1.27 1.27 1.27 0 0 1 1.27 1.27" fill="#f5f5f5"/><path d="M121 372a1.27 1.27 0 1 1-1.27-1.27A1.27 1.27 0 0 1 121 372m16 0a1.27 1.27 0 1 1-1.27-1.27A1.27 1.27 0 0 1 137 372" fill="#ef4444"/><path d="M149.81 378.09a1.27 1.27 0 1 1 1.27 1.27 1.27 1.27 0 0 1-1.27-1.27" fill="#263238"/><circle cx="145.47" cy="378.09" r="1.27" fill="#263238"/><path d="M138.6 378.09a1.27 1.27 0 1 1 1.27 1.27 1.27 1.27 0 0 1-1.27-1.27m-5.6 0a1.27 1.27 0 1 1 1.27 1.27 1.27 1.27 0 0 1-1.27-1.27m-43.46 0a1.27 1.27 0 1 1 1.27 1.27 1.27 1.27 0 0 1-1.27-1.27m-5.72 0a1.27 1.27 0 1 1 1.27 1.27 1.27 1.27 0 0 1-1.27-1.27m43.56 0a1.27 1.27 0 1 1 1.27 1.27 1.27 1.27 0 0 1-1.27-1.27" fill="#263238"/><circle cx="101.12" cy="378.09" r="1.27" fill="#263238"/><path d="M121.78 378.09a1.27 1.27 0 1 1 1.27 1.27 1.27 1.27 0 0 1-1.27-1.27" fill="#f5f5f5"/><circle cx="117.44" cy="378.09" r="1.27" fill="#f5f5f5"/><path d="M104.79 378.09a1.27 1.27 0 1 1 1.27 1.27 1.27 1.27 0 0 1-1.27-1.27" fill="#f5f5f5"/><circle cx="80.44" cy="378.09" r="1.27" fill="#f5f5f5"/><path d="M110.56 378.09a1.27 1.27 0 1 1 1.27 1.27 1.27 1.27 0 0 1-1.27-1.27m-16.05 0a1.27 1.27 0 1 1 1.27 1.27 1.27 1.27 0 0 1-1.27-1.27" fill="#ef4444"/><path d="M81.71 383.54a1.27 1.27 0 1 1-1.27-1.27 1.27 1.27 0 0 1 1.27 1.27m5.61 0a1.28 1.28 0 1 1-1.27-1.27 1.27 1.27 0 0 1 1.27 1.27m5.6 0a1.27 1.27 0 1 1-1.27-1.27 1.27 1.27 0 0 1 1.27 1.27m5.61 0a1.27 1.27 0 1 1-1.27-1.27 1.27 1.27 0 0 1 1.27 1.27m43.47 0a1.27 1.27 0 1 1-1.27-1.27 1.27 1.27 0 0 1 1.27 1.27m5.7 0a1.27 1.27 0 1 1-1.27-1.27 1.27 1.27 0 0 1 1.27 1.27m-43.56 0a1.27 1.27 0 1 1-1.27-1.27 1.27 1.27 0 0 1 1.27 1.27m27.54 0a1.28 1.28 0 1 1-1.28-1.27 1.27 1.27 0 0 1 1.28 1.27" fill="#263238"/><path d="M109.75 383.54a1.28 1.28 0 1 1-1.28-1.27 1.27 1.27 0 0 1 1.28 1.27m5.6 0a1.27 1.27 0 1 1-1.27-1.27 1.27 1.27 0 0 1 1.27 1.27m11.38 0a1.27 1.27 0 1 1-1.27-1.27 1.27 1.27 0 0 1 1.27 1.27m25.62 0a1.27 1.27 0 1 1-1.27-1.27 1.27 1.27 0 0 1 1.27 1.27" fill="#f5f5f5"/><path d="M121 383.54a1.27 1.27 0 1 1-1.27-1.27 1.27 1.27 0 0 1 1.27 1.27m16 0a1.27 1.27 0 1 1-1.27-1.27 1.27 1.27 0 0 1 1.27 1.27" fill="#ef4444"/><path d="M198.71 245.34h-1.87l-5.37.06-19.79.11-65.57.15.22-.26v3c0 31.73 0 60.46-.06 81.28 0 10.39-.06 18.8-.07 24.63v9.04-9.04c0-5.83 0-14.24-.07-24.63 0-20.82 0-49.55-.06-81.28v-3.23h65.78l19.79.06h6.77Z" fill="#263238"/><path d="M201.81 246.36a3.7 3.7 0 1 1-3.7-3.69 3.7 3.7 0 0 1 3.7 3.69M707 460.49c0 .15-148.66.26-332 .26s-332-.11-332-.26 148.63-.26 332-.26 332 .12 332 .26" fill="#263238"/></svg>
